# xmcd CD database file
#
# Track frame offsets:
#	225
#	13611
#	29982
#	43130
#	65652
#	82642
#	98755
#	110292
#	122058
#	156108
#	172464
#	191243
#	208177
#	228681
#	242983
#	257405
#
# Disc length: 3662 seconds
#
# Revision: 1
# Processed by: cddbd v1.5.1PL2 Copyright (c) Steve Scherf et al.
# Submitted via: CDex 1.70beta2
#
DISCID=e80e4b10
DTITLE=mix - Jahrtausendhits  Black Music cd1
DYEAR=1900
DGENRE=
TTITLE0=Percy Sledge - when a man loves a woman
TTITLE1=George Mccrae - Rock your Baby
TTITLE2=Aaron  Neville  - tell it like it is
TTITLE3=Kool and the Gang - Celebration
TTITLE4=Down Low - once upon a time 
TTITLE5=Johnny Wakelin - in Zaire
TTITLE6=Martha Reeves - Dancing in the Street
TTITLE7=Fats Domino - I'm walking
TTITLE8=Barry White - I found Love
TTITLE9=Brook Benton - Baby, you've got what it takes
TTITLE10=Gladys Knight and the Pips - Midnight Train to Georgia
TTITLE11=Gloria Gaynor - I will Survive
TTITLE12=Ben E. King - Supernatural thing
TTITLE13=the three Degress - when will I see you again
TTITLE14=the Temptations - my Girl
TTITLE15=Al Jarreau - use me
EXTD=
EXTT0=
EXTT1=
EXTT2=
EXTT3=
EXTT4=
EXTT5=
EXTT6=
EXTT7=
EXTT8=
EXTT9=
EXTT10=
EXTT11=
EXTT12=
EXTT13=
EXTT14=
EXTT15=
PLAYORDER=
